# xmcd
#
# Track frame offsets: 
#        150
#        14955
#        36645
#        54330
#        67085
#        93455
#        108625
#        139762
#        158630
#        176105
#        188100
#        203977
#
# Disc length: 2883 seconds
#
# Revision: 8
# Processed by: cddbd v1.5.2PL0 Copyright (c) Steve Scherf et al.
# Submitted via: ExactAudioCopyFreeDBPlugin 1.0
#
DISCID=b70b410c
DTITLE=Fredl Fesl - 4-Die Vierte
DYEAR=1981
DGENRE=Cabaret
TTITLE0=Felbernpfeiferl
TTITLE1=I hab de scho daseng
TTITLE2=Kälberkauf
TTITLE3=Schweinernes Lied
TTITLE4=Der Cowboy
TTITLE5=Sepp bleib' da
TTITLE6=Mückriges Lied
TTITLE7=Rosinante
TTITLE8=Bürgschaft
TTITLE9=Himmlisches Lied
TTITLE10=Gräfin und Ritter
TTITLE11=Herzliebste Brüder
EXTD=YEAR: 1981
EXTT0=
EXTT1=
EXTT2=
EXTT3=
EXTT4=
EXTT5=
EXTT6=
EXTT7=
EXTT8=
EXTT9=
EXTT10=
EXTT11=
PLAYORDER=
